{"accessors":[{"bufferView":1,"componentType":5126,"count":3612,"max":[1.3915802240371704,0.4946202039718628,1.836687445640564],"min":[-1.3845311403274536,-0.8213553428649902,0.6918774843215942],"type":"VEC3"},{"bufferView":1,"byteOffset":43344,"componentType":5126,"count":3612,"max":[0.949794590473175,0.9999754428863525,0.9999864101409912],"min":[-0.9497947096824646,-0.9994874000549316,-0.9676724076271057],"type":"VEC3"},{"bufferView":0,"componentType":5125,"count":21336,"type":"SCALAR"},{"bufferView":1,"byteOffset":86688,"componentType":5126,"count":560,"max":[1.4085813760757446,0.5297249555587769,1.8768689632415771],"min":[-1.3983659744262695,-0.8735563158988953,0.6381667256355286],"type":"VEC3"},{"bufferView":1,"byteOffset":93408,"componentType":5126,"count":560,"max":[0.876969039440155,0.999992847442627,0.9999608993530273],"min":[-0.8769730925559998,-0.999992847442627,-0.9999606609344482],"type":"VEC3"},{"bufferView":0,"byteOffset":85344,"componentType":5125,"count":3192,"type":"SCALAR"},{"bufferView":1,"byteOffset":100128,"componentType":5126,"count":3760,"max":[1.468571662902832,0.8082383275032043,1.9080959558486938],"min":[-1.4618991613388062,-1.0155764818191528,0.006332356482744217],"type":"VEC3"},{"bufferView":1,"byteOffset":145248,"componentType":5126,"count":3760,"max":[0.9999878406524658,0.9999933242797852,0.9999997615814209],"min":[-0.9999878406524658,-0.9999948740005493,-0.9999880790710449],"type":"VEC3"},{"bufferView":0,"byteOffset":98112,"componentType":5125,"count":22200,"type":"SCALAR"}],"asset":{"extras":{"author":"3DMish (https://sketchfab.com/3dmish)","license":"CC-BY-4.0 (http://creativecommons.org/licenses/by/4.0/)","source":"https://sketchfab.com/3d-models/wooden-bench-dd5f87e5b8644111b8180515eed4c54e","title":"Wooden Bench"},"generator":"Sketchfab-12.67.0","version":"2.0"},"bufferViews":[{"buffer":0,"byteLength":186912,"name":"floatBufferViews","target":34963},{"buffer":0,"byteLength":190368,"byteOffset":186912,"byteStride":12,"name":"floatBufferViews","target":34962}],"buffers":[{"byteLength":377280,"uri":"data:application/octet-stream;base64,"}],"materials":[{"doubleSided":true,"name":"Bench.001","pbrMetallicRoughness":{"roughnessFactor":0}},{"doubleSided":true,"name":"Bench.002","pbrMetallicRoughness":{"baseColorFactor":[0.0758955803843573,0.025681704328248917,0.000731926950598963,1],"metallicFactor":0,"roughnessFactor":0.766577743902439}},{"doubleSided":true,"name":"Bench.003","pbrMetallicRoughness":{"baseColorFactor":[0.025191469456802475,0.025191469456802475,0.025191469456802475,1],"roughnessFactor":0.30659298780487804}}],"meshes":[{"name":"Bench_Bench.001_0","primitives":[{"attributes":{"NORMAL":1,"POSITION":0},"indices":2,"material":0,"mode":4}]},{"name":"Bench_Bench.002_0","primitives":[{"attributes":{"NORMAL":4,"POSITION":3},"indices":5,"material":1,"mode":4}]},{"name":"Bench_Bench.003_0","primitives":[{"attributes":{"NORMAL":7,"POSITION":6},"indices":8,"material":2,"mode":4}]}],"nodes":[{"children":[1],"matrix":[1,0,0,0,0,2.220446049250313e-16,-1,0,0,1,2.220446049250313e-16,0,0,0,0,1],"name":"Sketchfab_model"},{"children":[2],"matrix":[1,0,0,0,0,0,1,0,0,-1,0,0,0,0,0,1],"name":"52c2bc72dbd94ea7b51eb8f5201fb2df.fbx"},{"children":[3,7,10],"name":"RootNode"},{"children":[4,5,6],"matrix":[102,0,0,0,0,-0.000004371139006309477,-99.9999999999999,0,0,99.9999999999999,-0.000004371139006309477,0,0,0,0,1],"name":"Bench"},{"mesh":0,"name":"Bench_Bench.001_0"},{"mesh":1,"name":"Bench_Bench.002_0"},{"mesh":2,"name":"Bench_Bench.003_0"},{"children":[8],"matrix":[-61.21812592831346,-5.51890103308563,78.87891219592323,0,-50.5229644759289,79.46724444896799,-33.650937496199795,0,-60.8257406769361,-60.452442692382434,-51.436674111244244,0,-503.62310791015625,590.38623046875,-262.0660400390625,1],"name":"Lamp"},{"children":[9],"matrix":[1,0,0,0,0,2.220446049250313e-16,1,0,0,-1,2.220446049250313e-16,0,0,0,0,1],"name":"Object_8"},{"name":"Object_9"},{"children":[11],"matrix":[-79.87102241764335,-35.5525034099543,48.545229211998794,0,-30.38098624618871,93.4666758865207,18.465540160877524,0,-51.93857384130995,0.00009631135528681556,-85.453990821503,0,344.27716064453125,208.10301208496094,-161.006591796875,1],"name":"Camera"},{"name":"Object_11"}],"scene":0,"scenes":[{"name":"Sketchfab_Scene","nodes":[0]}]}