{"accessors":[{"bufferView":2,"componentType":5126,"count":162,"max":[85.343994140625,20.640344619750977,9.144000053405762],"min":[67.05599975585938,0,-9.143999099731445],"type":"VEC3"},{"bufferView":2,"byteOffset":1944,"componentType":5126,"count":162,"max":[1,0.9945502877235413,1],"min":[-1,0,-1],"type":"VEC3"},{"bufferView":1,"componentType":5126,"count":162,"max":[1,1],"min":[0,0],"type":"VEC2"},{"bufferView":1,"byteOffset":1296,"componentType":5126,"count":162,"max":[1,1],"min":[0,0],"type":"VEC2"},{"bufferView":0,"componentType":5125,"count":288,"type":"SCALAR"},{"bufferView":2,"byteOffset":3888,"componentType":5126,"count":149,"max":[105.71333312988281,25.288330078125,4.647976875305176],"min":[-152.45277404785156,15.992366790771484,-4.647976398468018],"type":"VEC3"},{"bufferView":2,"byteOffset":5676,"componentType":5126,"count":149,"max":[1,1,1],"min":[-1,-1,-1],"type":"VEC3"},{"bufferView":1,"byteOffset":2592,"componentType":5126,"count":149,"max":[1,1],"min":[0,0],"type":"VEC2"},{"bufferView":1,"byteOffset":3784,"componentType":5126,"count":149,"max":[1,1],"min":[0,0],"type":"VEC2"},{"bufferView":0,"byteOffset":1152,"componentType":5125,"count":192,"type":"SCALAR"},{"bufferView":2,"byteOffset":7464,"componentType":5126,"count":205,"max":[105.7133560180664,40.885528564453125,30.842010498046875],"min":[44.029319763183594,27.316791534423828,-30.842010498046875],"type":"VEC3"},{"bufferView":2,"byteOffset":9924,"componentType":5126,"count":205,"max":[1,1,1],"min":[-1,-1,-1],"type":"VEC3"},{"bufferView":1,"byteOffset":4976,"componentType":5126,"count":205,"max":[0.875,1],"min":[0.125,0],"type":"VEC2"},{"bufferView":1,"byteOffset":6616,"componentType":5126,"count":205,"max":[0.875,1],"min":[0.125,0],"type":"VEC2"},{"bufferView":0,"byteOffset":1920,"componentType":5125,"count":384,"type":"SCALAR"},{"bufferView":2,"byteOffset":12384,"componentType":5126,"count":56,"max":[102.36431884765625,40.04538345336914,30.08732795715332],"min":[47.37834548950195,28.572343826293945,-30.08732795715332],"type":"VEC3"},{"bufferView":2,"byteOffset":13056,"componentType":5126,"count":56,"max":[0,1,1],"min":[0,-1,-1],"type":"VEC3"},{"bufferView":1,"byteOffset":8256,"componentType":5126,"count":56,"max":[1.6302039623260498,3.0187556743621826],"min":[-0.019796013832092285,-1.961782693862915],"type":"VEC2"},{"bufferView":1,"byteOffset":8704,"componentType":5126,"count":56,"max":[1.6302039623260498,3.0187556743621826],"min":[-0.019796013832092285,-1.961782693862915],"type":"VEC2"},{"bufferView":0,"byteOffset":3456,"componentType":5125,"count":84,"type":"SCALAR"},{"bufferView":2,"byteOffset":13728,"componentType":5126,"count":205,"max":[40.219329833984375,40.885528564453125,30.842010498046875],"min":[-21.464706420898438,27.316791534423828,-30.842010498046875],"type":"VEC3"},{"bufferView":2,"byteOffset":16188,"componentType":5126,"count":205,"max":[1,1,1],"min":[-1,-1,-1],"type":"VEC3"},{"bufferView":1,"byteOffset":9152,"componentType":5126,"count":205,"max":[0.875,1],"min":[0.125,0],"type":"VEC2"},{"bufferView":1,"byteOffset":10792,"componentType":5126,"count":205,"max":[0.875,1],"min":[0.125,0],"type":"VEC2"},{"bufferView":0,"byteOffset":3792,"componentType":5125,"count":384,"type":"SCALAR"},{"bufferView":2,"byteOffset":18648,"componentType":5126,"count":56,"max":[36.87029266357422,40.04538345336914,30.08732795715332],"min":[-18.115680694580078,28.572343826293945,-30.08732795715332],"type":"VEC3"},{"bufferView":2,"byteOffset":19320,"componentType":5126,"count":56,"max":[0,1,1],"min":[0,-1,-1],"type":"VEC3"},{"bufferView":1,"byteOffset":12432,"componentType":5126,"count":56,"max":[1.6302039623260498,3.0187556743621826],"min":[-0.019796013832092285,-1.961782693862915],"type":"VEC2"},{"bufferView":1,"byteOffset":12880,"componentType":5126,"count":56,"max":[1.6302039623260498,3.0187556743621826],"min":[-0.019796013832092285,-1.961782693862915],"type":"VEC2"},{"bufferView":0,"byteOffset":5328,"componentType":5125,"count":84,"type":"SCALAR"},{"bufferView":2,"byteOffset":19992,"componentType":5126,"count":202,"max":[-25.274696350097656,40.885528564453125,30.842010498046875],"min":[-86.95873260498047,27.316791534423828,-30.842010498046875],"type":"VEC3"},{"bufferView":2,"byteOffset":22416,"componentType":5126,"count":202,"max":[1,1,1],"min":[-1,-1,-1],"type":"VEC3"},{"bufferView":1,"byteOffset":13328,"componentType":5126,"count":202,"max":[0.875,1],"min":[0.125,0],"type":"VEC2"},{"bufferView":1,"byteOffset":14944,"componentType":5126,"count":202,"max":[0.875,1],"min":[0.125,0],"type":"VEC2"},{"bufferView":0,"byteOffset":5664,"componentType":5125,"count":384,"type":"SCALAR"},{"bufferView":2,"byteOffset":24840,"componentType":5126,"count":56,"max":[-28.623733520507812,40.04538345336914,30.08732795715332],"min":[-83.60971069335938,28.572343826293945,-30.08732795715332],"type":"VEC3"},{"bufferView":2,"byteOffset":25512,"componentType":5126,"count":56,"max":[0,1,1],"min":[0,-1,-1],"type":"VEC3"},{"bufferView":1,"byteOffset":16560,"componentType":5126,"count":56,"max":[1.6302039623260498,3.0187556743621826],"min":[-0.019796013832092285,-1.961782693862915],"type":"VEC2"},{"bufferView":1,"byteOffset":17008,"componentType":5126,"count":56,"max":[1.6302039623260498,3.0187556743621826],"min":[-0.019796013832092285,-1.961782693862915],"type":"VEC2"},{"bufferView":0,"byteOffset":7200,"componentType":5125,"count":84,"type":"SCALAR"},{"bufferView":2,"byteOffset":26184,"componentType":5126,"count":190,"max":[-90.76873016357422,40.885528564453125,30.842010498046875],"min":[-152.4527587890625,27.316791534423828,-30.842010498046875],"type":"VEC3"},{"bufferView":2,"byteOffset":28464,"componentType":5126,"count":190,"max":[1,1,1],"min":[-1,-1,-1],"type":"VEC3"},{"bufferView":1,"byteOffset":17456,"componentType":5126,"count":190,"max":[0.875,1],"min":[0.125,0],"type":"VEC2"},{"bufferView":1,"byteOffset":18976,"componentType":5126,"count":190,"max":[0.875,1],"min":[0.125,0],"type":"VEC2"},{"bufferView":0,"byteOffset":7536,"componentType":5125,"count":384,"type":"SCALAR"},{"bufferView":2,"byteOffset":30744,"componentType":5126,"count":56,"max":[-94.11776733398438,40.04538345336914,30.08732795715332],"min":[-149.10374450683594,28.572343826293945,-30.08732795715332],"type":"VEC3"},{"bufferView":2,"byteOffset":31416,"componentType":5126,"count":56,"max":[0,1,1],"min":[0,-1,-1],"type":"VEC3"},{"bufferView":1,"byteOffset":20496,"componentType":5126,"count":56,"max":[1.6302039623260498,3.0187556743621826],"min":[-0.019796013832092285,-1.961782693862915],"type":"VEC2"},{"bufferView":1,"byteOffset":20944,"componentType":5126,"count":56,"max":[1.6302039623260498,3.0187556743621826],"min":[-0.019796013832092285,-1.961782693862915],"type":"VEC2"},{"bufferView":0,"byteOffset":9072,"componentType":5125,"count":84,"type":"SCALAR"},{"bufferView":2,"byteOffset":32088,"componentType":5126,"count":162,"max":[-111.1380844116211,20.640344619750977,9.144000053405762],"min":[-129.42608642578125,0,-9.143999099731445],"type":"VEC3"},{"bufferView":2,"byteOffset":34032,"componentType":5126,"count":162,"max":[1,0.994550347328186,1],"min":[-1,0,-1],"type":"VEC3"},{"bufferView":1,"byteOffset":21392,"componentType":5126,"count":162,"max":[1,1],"min":[0,0],"type":"VEC2"},{"bufferView":1,"byteOffset":22688,"componentType":5126,"count":162,"max":[1,1],"min":[0,0],"type":"VEC2"},{"bufferView":0,"byteOffset":9408,"componentType":5125,"count":288,"type":"SCALAR"},{"bufferView":2,"byteOffset":35976,"componentType":5126,"count":16,"max":[-149.95089721679688,37.101104736328125,2.5335493087768555],"min":[-151.6055908203125,20.640352249145508,-2.533548355102539],"type":"VEC3"},{"bufferView":2,"byteOffset":36168,"componentType":5126,"count":16,"max":[1,0,1],"min":[-1,0,-1],"type":"VEC3"},{"bufferView":1,"byteOffset":23984,"componentType":5126,"count":16,"max":[0.875,0.75],"min":[0.125,0],"type":"VEC2"},{"bufferView":1,"byteOffset":24112,"componentType":5126,"count":16,"max":[0.875,0.75],"min":[0.125,0],"type":"VEC2"},{"bufferView":0,"byteOffset":10560,"componentType":5125,"count":24,"type":"SCALAR"},{"bufferView":2,"byteOffset":36360,"componentType":5126,"count":16,"max":[-91.61590576171875,37.101104736328125,2.5335493087768555],"min":[-93.27058410644531,20.640352249145508,-2.533548355102539],"type":"VEC3"},{"bufferView":2,"byteOffset":36552,"componentType":5126,"count":16,"max":[1,0,1],"min":[-1,0,-1],"type":"VEC3"},{"bufferView":1,"byteOffset":24240,"componentType":5126,"count":16,"max":[0.875,0.75],"min":[0.125,0],"type":"VEC2"},{"bufferView":1,"byteOffset":24368,"componentType":5126,"count":16,"max":[0.875,0.75],"min":[0.125,0],"type":"VEC2"},{"bufferView":0,"byteOffset":10656,"componentType":5125,"count":24,"type":"SCALAR"},{"bufferView":2,"byteOffset":36744,"componentType":5126,"count":16,"max":[-84.45687866210938,37.101104736328125,2.5335493087768555],"min":[-86.11155700683594,20.640352249145508,-2.533548355102539],"type":"VEC3"},{"bufferView":2,"byteOffset":36936,"componentType":5126,"count":16,"max":[1,0,1],"min":[-1,0,-1],"type":"VEC3"},{"bufferView":1,"byteOffset":24496,"componentType":5126,"count":16,"max":[0.875,0.75],"min":[0.125,0],"type":"VEC2"},{"bufferView":1,"byteOffset":24624,"componentType":5126,"count":16,"max":[0.875,0.75],"min":[0.125,0],"type":"VEC2"},{"bufferView":0,"byteOffset":10752,"componentType":5125,"count":24,"type":"SCALAR"},{"bufferView":2,"byteOffset":37128,"componentType":5126,"count":16,"max":[-26.121877670288086,37.101104736328125,2.5335493087768555],"min":[-27.776559829711914,20.640352249145508,-2.533548355102539],"type":"VEC3"},{"bufferView":2,"byteOffset":37320,"componentType":5126,"count":16,"max":[1,0,1],"min":[-1,0,-1],"type":"VEC3"},{"bufferView":1,"byteOffset":24752,"componentType":5126,"count":16,"max":[0.875,0.75],"min":[0.125,0],"type":"VEC2"},{"bufferView":1,"byteOffset":24880,"componentType":5126,"count":16,"max":[0.875,0.75],"min":[0.125,0],"type":"VEC2"},{"bufferView":0,"byteOffset":10848,"componentType":5125,"count":24,"type":"SCALAR"},{"bufferView":2,"byteOffset":37512,"componentType":5126,"count":16,"max":[-18.962854385375977,37.101104736328125,2.5335493087768555],"min":[-20.617534637451172,20.640352249145508,-2.533548355102539],"type":"VEC3"},{"bufferView":2,"byteOffset":37704,"componentType":5126,"count":16,"max":[1,0,1],"min":[-1,0,-1],"type":"VEC3"},{"bufferView":1,"byteOffset":25008,"componentType":5126,"count":16,"max":[0.875,0.75],"min":[0.125,0],"type":"VEC2"},{"bufferView":1,"byteOffset":25136,"componentType":5126,"count":16,"max":[0.875,0.75],"min":[0.125,0],"type":"VEC2"},{"bufferView":0,"byteOffset":10944,"componentType":5125,"count":24,"type":"SCALAR"},{"bufferView":2,"byteOffset":37896,"componentType":5126,"count":16,"max":[39.37214660644531,37.101104736328125,2.5335493087768555],"min":[37.71746063232422,20.640352249145508,-2.533548355102539],"type":"VEC3"},{"bufferView":2,"byteOffset":38088,"componentType":5126,"count":16,"max":[1,0,1],"min":[-1,0,-1],"type":"VEC3"},{"bufferView":1,"byteOffset":25264,"componentType":5126,"count":16,"max":[0.875,0.75],"min":[0.125,0],"type":"VEC2"},{"bufferView":1,"byteOffset":25392,"componentType":5126,"count":16,"max":[0.875,0.75],"min":[0.125,0],"type":"VEC2"},{"bufferView":0,"byteOffset":11040,"componentType":5125,"count":24,"type":"SCALAR"},{"bufferView":2,"byteOffset":38280,"componentType":5126,"count":16,"max":[46.53117370605469,37.101104736328125,2.5335493087768555],"min":[44.876495361328125,20.640352249145508,-2.533548355102539],"type":"VEC3"},{"bufferView":2,"byteOffset":38472,"componentType":5126,"count":16,"max":[1,0,1],"min":[-1,0,-1],"type":"VEC3"},{"bufferView":1,"byteOffset":25520,"componentType":5126,"count":16,"max":[0.875,0.75],"min":[0.125,0],"type":"VEC2"},{"bufferView":1,"byteOffset":25648,"componentType":5126,"count":16,"max":[0.875,0.75],"min":[0.125,0],"type":"VEC2"},{"bufferView":0,"byteOffset":11136,"componentType":5125,"count":24,"type":"SCALAR"},{"bufferView":2,"byteOffset":38664,"componentType":5126,"count":16,"max":[104.86617279052734,37.101104736328125,2.5335493087768555],"min":[103.21149444580078,20.640352249145508,-2.533548355102539],"type":"VEC3"},{"bufferView":2,"byteOffset":38856,"componentType":5126,"count":16,"max":[1,0,1],"min":[-1,0,-1],"type":"VEC3"},{"bufferView":1,"byteOffset":25776,"componentType":5126,"count":16,"max":[0.875,0.75],"min":[0.125,0],"type":"VEC2"},{"bufferView":1,"byteOffset":25904,"componentType":5126,"count":16,"max":[0.875,0.75],"min":[0.125,0],"type":"VEC2"},{"bufferView":0,"byteOffset":11232,"componentType":5125,"count":24,"type":"SCALAR"}],"asset":{"extras":{"author":"Billy Jackman (https://sketchfab.com/billyjackman3d)","license":"CC-BY-4.0 (http://creativecommons.org/licenses/by/4.0/)","source":"https://sketchfab.com/3d-models/bench-a6cdadcf543b4214b85ecbb0e09a5af6","title":"Bench"},"generator":"Sketchfab-12.65.0","version":"2.0"},"bufferViews":[{"buffer":0,"byteLength":11328,"name":"floatBufferViews","target":34963},{"buffer":0,"byteLength":26032,"byteOffset":11328,"byteStride":8,"name":"floatBufferViews","target":34962},{"buffer":0,"byteLength":39048,"byteOffset":37360,"byteStride":12,"name":"floatBufferViews","target":34962}],"buffers":[{"byteLength":76408,"uri":"data:application/octet-stream;base64,"}],"images":[{"uri":"data:application/octet-stream;base64,"}],"materials":[{"doubleSided":true,"name":"Aqua_Color","pbrMetallicRoughness":{"baseColorFactor":[0.1366248,0.2733176,0.30160000000000003,1],"metallicFactor":0,"roughnessFactor":0.6}},{"alphaMode":"BLEND","doubleSided":true,"name":"Wire_MAT","pbrMetallicRoughness":{"baseColorTexture":{"index":0},"metallicFactor":0,"roughnessFactor":0.6}}],"meshes":[{"name":"Object_0","primitives":[{"attributes":{"NORMAL":1,"POSITION":0,"TEXCOORD_0":2,"TEXCOORD_1":3},"indices":4,"material":0,"mode":4}]},{"name":"Object_1","primitives":[{"attributes":{"NORMAL":6,"POSITION":5,"TEXCOORD_0":7,"TEXCOORD_1":8},"indices":9,"material":0,"mode":4}]},{"name":"Object_2","primitives":[{"attributes":{"NORMAL":11,"POSITION":10,"TEXCOORD_0":12,"TEXCOORD_1":13},"indices":14,"material":0,"mode":4}]},{"name":"Object_3","primitives":[{"attributes":{"NORMAL":16,"POSITION":15,"TEXCOORD_0":17,"TEXCOORD_1":18},"indices":19,"material":1,"mode":4}]},{"name":"Object_4","primitives":[{"attributes":{"NORMAL":21,"POSITION":20,"TEXCOORD_0":22,"TEXCOORD_1":23},"indices":24,"material":0,"mode":4}]},{"name":"Object_5","primitives":[{"attributes":{"NORMAL":26,"POSITION":25,"TEXCOORD_0":27,"TEXCOORD_1":28},"indices":29,"material":1,"mode":4}]},{"name":"Object_6","primitives":[{"attributes":{"NORMAL":31,"POSITION":30,"TEXCOORD_0":32,"TEXCOORD_1":33},"indices":34,"material":0,"mode":4}]},{"name":"Object_7","primitives":[{"attributes":{"NORMAL":36,"POSITION":35,"TEXCOORD_0":37,"TEXCOORD_1":38},"indices":39,"material":1,"mode":4}]},{"name":"Object_8","primitives":[{"attributes":{"NORMAL":41,"POSITION":40,"TEXCOORD_0":42,"TEXCOORD_1":43},"indices":44,"material":0,"mode":4}]},{"name":"Object_9","primitives":[{"attributes":{"NORMAL":46,"POSITION":45,"TEXCOORD_0":47,"TEXCOORD_1":48},"indices":49,"material":1,"mode":4}]},{"name":"Object_10","primitives":[{"attributes":{"NORMAL":51,"POSITION":50,"TEXCOORD_0":52,"TEXCOORD_1":53},"indices":54,"material":0,"mode":4}]},{"name":"Object_11","primitives":[{"attributes":{"NORMAL":56,"POSITION":55,"TEXCOORD_0":57,"TEXCOORD_1":58},"indices":59,"material":0,"mode":4}]},{"name":"Object_12","primitives":[{"attributes":{"NORMAL":61,"POSITION":60,"TEXCOORD_0":62,"TEXCOORD_1":63},"indices":64,"material":0,"mode":4}]},{"name":"Object_13","primitives":[{"attributes":{"NORMAL":66,"POSITION":65,"TEXCOORD_0":67,"TEXCOORD_1":68},"indices":69,"material":0,"mode":4}]},{"name":"Object_14","primitives":[{"attributes":{"NORMAL":71,"POSITION":70,"TEXCOORD_0":72,"TEXCOORD_1":73},"indices":74,"material":0,"mode":4}]},{"name":"Object_15","primitives":[{"attributes":{"NORMAL":76,"POSITION":75,"TEXCOORD_0":77,"TEXCOORD_1":78},"indices":79,"material":0,"mode":4}]},{"name":"Object_16","primitives":[{"attributes":{"NORMAL":81,"POSITION":80,"TEXCOORD_0":82,"TEXCOORD_1":83},"indices":84,"material":0,"mode":4}]},{"name":"Object_17","primitives":[{"attributes":{"NORMAL":86,"POSITION":85,"TEXCOORD_0":87,"TEXCOORD_1":88},"indices":89,"material":0,"mode":4}]},{"name":"Object_18","primitives":[{"attributes":{"NORMAL":91,"POSITION":90,"TEXCOORD_0":92,"TEXCOORD_1":93},"indices":94,"material":0,"mode":4}]}],"nodes":[{"children":[1],"matrix":[1,0,0,0,0,2.220446049250313e-16,-1,0,0,1,2.220446049250313e-16,0,0,0,0,1],"name":"Sketchfab_model"},{"children":[2],"matrix":[1,0,0,0,0,0,1,0,0,-1,0,0,0,0,0,1],"name":"fb60b0871aaf481b8a4fbe4eaacbecdb.fbx"},{"children":[3,4,5,6,7,8,9,10,11,12,13,14,15,16,17,18,19,20,21],"name":"RootNode"},{"mesh":0,"name":"Object_3"},{"mesh":1,"name":"Object_4"},{"mesh":2,"name":"Object_5"},{"mesh":3,"name":"Object_6"},{"mesh":4,"name":"Object_7"},{"mesh":5,"name":"Object_8"},{"mesh":6,"name":"Object_9"},{"mesh":7,"name":"Object_10"},{"mesh":8,"name":"Object_11"},{"mesh":9,"name":"Object_12"},{"mesh":10,"name":"Object_13"},{"mesh":11,"name":"Object_14"},{"mesh":12,"name":"Object_15"},{"mesh":13,"name":"Object_16"},{"mesh":14,"name":"Object_17"},{"mesh":15,"name":"Object_18"},{"mesh":16,"name":"Object_19"},{"mesh":17,"name":"Object_20"},{"mesh":18,"name":"Object_21"}],"samplers":[{"magFilter":9729,"minFilter":9987,"wrapS":10497,"wrapT":10497}],"scene":0,"scenes":[{"name":"Sketchfab_Scene","nodes":[0]}],"textures":[{"sampler":0,"source":0}]}