{"accessors":[{"bufferView":2,"componentType":5126,"count":441,"max":[158.2622833251953,395.23785400390625,55.39468765258789],"min":[35.823768615722656,-0.9526909589767456,42.22062683105469],"type":"VEC3"},{"bufferView":2,"byteOffset":5292,"componentType":5126,"count":441,"max":[1,1,1],"min":[-1,-1,-1],"type":"VEC3"},{"bufferView":3,"componentType":5126,"count":441,"max":[0.9999517202377319,0.9999891519546509,1,1],"min":[-0.9999077320098877,-0.9999631643295288,-1,1],"type":"VEC4"},{"bufferView":1,"componentType":5126,"count":441,"max":[0.8533627986907959,1],"min":[0,0],"type":"VEC2"},{"bufferView":0,"componentType":5125,"count":1944,"type":"SCALAR"}],"asset":{"extras":{"author":"Speed (https://sketchfab.com/Speeedd)","license":"CC-BY-4.0 (http://creativecommons.org/licenses/by/4.0/)","source":"https://sketchfab.com/3d-models/lamp-post-d15dd01d361544ed98c43062020b6a15","title":"Lamp Post"},"generator":"Sketchfab-14.1.0","version":"2.0"},"bufferViews":[{"buffer":0,"byteLength":7776,"name":"floatBufferViews","target":34963},{"buffer":0,"byteLength":3528,"byteOffset":7776,"byteStride":8,"name":"floatBufferViews","target":34962},{"buffer":0,"byteLength":10584,"byteOffset":11304,"byteStride":12,"name":"floatBufferViews","target":34962},{"buffer":0,"byteLength":7056,"byteOffset":21888,"byteStride":16,"name":"floatBufferViews","target":34962}],"buffers":[{"byteLength":28944,"uri":"data:application/octet-stream;base64,"}],"images":[{"uri":"data:application/octet-stream;base64,"},{"uri":"data:application/octet-stream;base64,"},{"uri":"data:application/octet-stream;base64,"},{"uri":"data:application/octet-stream;base64,"}],"materials":[{"doubleSided":true,"emissiveFactor":[1,1,1],"emissiveTexture":{"index":2},"name":"lambert1","normalTexture":{"index":3},"pbrMetallicRoughness":{"baseColorTexture":{"index":0},"metallicRoughnessTexture":{"index":1}}}],"meshes":[{"name":"pCylinder2_lambert1_0","primitives":[{"attributes":{"NORMAL":1,"POSITION":0,"TANGENT":2,"TEXCOORD_0":3},"indices":4,"material":0,"mode":4}]}],"nodes":[{"children":[1],"matrix":[1,0,0,0,0,2.220446049250313e-16,-1,0,0,1,2.220446049250313e-16,0,0,0,0,1],"name":"Sketchfab_model"},{"children":[2],"matrix":[1,0,0,0,0,0,1,0,0,-1,0,0,0,0,0,1],"name":"04ddad1cfd6f4e1aaa63142c1d0a5fd0.fbx"},{"children":[3],"name":"RootNode"},{"children":[4],"matrix":[0.009999999776482582,0,0,0,0,0.009999999776482582,0,0,0,0,0.009999999776482582,0,0,0,-7.105427357601002e-15,1],"name":"pCylinder2"},{"mesh":0,"name":"pCylinder2_lambert1_0"}],"samplers":[{"magFilter":9729,"minFilter":9987,"wrapS":10497,"wrapT":10497}],"scene":0,"scenes":[{"name":"Sketchfab_Scene","nodes":[0]}],"textures":[{"sampler":0,"source":0},{"sampler":0,"source":1},{"sampler":0,"source":2},{"sampler":0,"source":3}]}